<?xml version="1.0" encoding="UTF-8" standalone="no"?>
<!-- Created with Inkscape (http://www.inkscape.org/) -->

<svg
   width="256"
   height="256"
   viewBox="0 0 256 256.00001"
   version="1.1"
   id="svg1"
   inkscape:version="1.3.2 (1:1.3.2+202311252150+091e20ef0f)"
   sodipodi:docname="20241011_cococore.svg"
   inkscape:export-filename="20241011_cococore.png"
   inkscape:export-xdpi="96"
   inkscape:export-ydpi="96"
   xmlns:inkscape="http://www.inkscape.org/namespaces/inkscape"
   xmlns:sodipodi="http://sodipodi.sourceforge.net/DTD/sodipodi-0.dtd"
   xmlns:xlink="http://www.w3.org/1999/xlink"
   xmlns="http://www.w3.org/2000/svg"
   xmlns:svg="http://www.w3.org/2000/svg"
   xmlns:rdf="http://www.w3.org/1999/02/22-rdf-syntax-ns#"
   xmlns:cc="http://creativecommons.org/ns#">
  <sodipodi:namedview
     id="namedview1"
     pagecolor="#505050"
     bordercolor="#ffffff"
     borderopacity="1"
     inkscape:showpageshadow="false"
     inkscape:pageopacity="0"
     inkscape:pagecheckerboard="true"
     inkscape:deskcolor="#3f3f3f"
     inkscape:document-units="px"
     labelstyle="default"
     inkscape:zoom="2.0000001"
     inkscape:cx="67.999998"
     inkscape:cy="134"
     inkscape:window-width="1536"
     inkscape:window-height="840"
     inkscape:window-x="0"
     inkscape:window-y="0"
     inkscape:window-maximized="1"
     inkscape:current-layer="layer1"
     showgrid="true"
     showborder="true"
     inkscape:clip-to-page="false"
     showguides="true"
     guidecolor="#ffffff"
     guideopacity="0.6">
    <inkscape:grid
       id="grid1"
       units="px"
       originx="0"
       originy="0"
       spacingx="8.0000002"
       spacingy="8.0000002"
       empcolor="#e5e500"
       empopacity="0.30196078"
       color="#e5e500"
       opacity="0.14901961"
       empspacing="8"
       dotted="false"
       gridanglex="30"
       gridanglez="30"
       visible="true" />
    <sodipodi:guide
       position="128,112.00001"
       orientation="0,-1"
       id="guide17"
       inkscape:locked="false" />
  </sodipodi:namedview>
  <defs
     id="defs1">
    <linearGradient
       id="linearGradient13"
       inkscape:collect="always">
      <stop
         style="stop-color:#ffffff;stop-opacity:1;"
         offset="0"
         id="stop14" />
      <stop
         style="stop-color:#ffffff;stop-opacity:1;"
         offset="0.75"
         id="stop16" />
      <stop
         style="stop-color:#ededed;stop-opacity:1;"
         offset="1"
         id="stop15" />
    </linearGradient>
    <linearGradient
       id="linearGradient10"
       inkscape:collect="always">
      <stop
         style="stop-color:#00d4ff;stop-opacity:1;"
         offset="0"
         id="stop10" />
      <stop
         style="stop-color:#ffffff;stop-opacity:1;"
         offset="0.25"
         id="stop12" />
      <stop
         style="stop-color:#c311ff;stop-opacity:1;"
         offset="0.28125"
         id="stop13" />
      <stop
         style="stop-color:#00fda9;stop-opacity:1;"
         offset="1"
         id="stop11" />
    </linearGradient>
    <color-profile
       name="Compatible-with-Adobe-RGB-1998"
       xlink:href="file:///usr/share/color/icc/colord/AdobeRGB1998.icc"
       id="color-profile2" />
    <linearGradient
       inkscape:collect="always"
       xlink:href="#linearGradient10"
       id="linearGradient11"
       x1="-64"
       y1="0"
       x2="-64"
       y2="255.99998"
       gradientUnits="userSpaceOnUse" />
    <radialGradient
       inkscape:collect="always"
       xlink:href="#linearGradient13"
       id="radialGradient15"
       cx="128"
       cy="240.00002"
       fx="128"
       fy="240.00002"
       r="48"
       gradientTransform="matrix(1.3333334,-3.9010955e-8,2.3372759e-8,0.66666668,-42.666687,-8.000014)"
       gradientUnits="userSpaceOnUse" />
    <filter
       inkscape:collect="always"
       style="color-interpolation-filters:sRGB"
       id="filter16"
       x="-0.074926004"
       y="-0.075074145"
       width="1.149852"
       height="1.1501483">
      <feGaussianBlur
         inkscape:collect="always"
         stdDeviation="1.994084"
         id="feGaussianBlur16" />
    </filter>
  </defs>
  <g
     inkscape:label="Layer 1"
     inkscape:groupmode="layer"
     id="layer1">
    <ellipse
       style="fill:url(#linearGradient11);stroke:none;stroke-width:8;stroke-dasharray:none;paint-order:markers fill stroke;fill-opacity:1;stroke-opacity:1"
       id="path3"
       cx="128"
       cy="127.99999"
       rx="128"
       ry="127.99999" />
    <path
       style="fill:#784421;stroke:none;stroke-width:16;paint-order:markers fill stroke"
       d="m 56,127.99999 c 0,0 8,64 72,64 64,0 72,-64 72,-64 0,0 -8,-32 -72,-32 -64,0 -72,32 -72,32 z"
       id="path1"
       sodipodi:nodetypes="czczc" />
    <path
       style="fill:#ffffff;stroke:none;stroke-width:16;paint-order:markers fill stroke"
       d="m 64,127.99999 c 0,0 0,-24 64,-24 64,0 64,24 64,24 0,0 0,24 -64,24 -64,0 -64,-24 -64,-24 z"
       id="path2"
       sodipodi:nodetypes="czczc" />
    <path
       style="fill:url(#radialGradient15);stroke:none;stroke-width:16;paint-order:markers fill stroke"
       d="m 80,127.99999 c 0,0 0,-16 48,-16 48,0 48,16 48,16 0,0 0,16 -48,16 -48,0 -48,-16 -48,-16 z"
       id="path2-5"
       sodipodi:nodetypes="czczc" />
    <path
       sodipodi:type="star"
       style="fill:#f6dbff;fill-opacity:1;stroke:none;stroke-width:8.57002;paint-order:markers fill stroke;filter:url(#filter16)"
       id="path16"
       inkscape:flatsided="false"
       sodipodi:sides="25"
       sodipodi:cx="128"
       sodipodi:cy="63.999996"
       sodipodi:r1="31.999998"
       sodipodi:r2="9.1428576"
       sodipodi:arg1="1.5707963"
       sodipodi:arg2="1.69646"
       inkscape:rounded="0"
       inkscape:randomized="0"
       d="M 128,95.999994 126.8541,73.07076 120.04192,94.994656 124.63429,72.50081 112.58388,92.041809 122.62596,71.396723 106.09449,87.326991 120.95531,69.827873 100.98151,81.146453 119.7273,67.892836 97.566194,73.88854 119.01909,65.713197 96.063147,66.009294 118.87518,63.425912 96.56681,58.003795 119.30463,61.174698 99.045536,50.37506 120.28043,59.101008 103.34358,43.60243 l 18.3977,13.73271 -12.55041,-19.223686 14.40452,17.876595 -7.37538,-21.740898 9.50625,20.897227 -1.73692,-22.89205 4.01066,22.604811 4.01066,-22.604811 -1.73692,22.89205 9.50624,-20.897228 -7.37538,21.740899 14.40453,-17.876596 -12.55041,19.223687 18.3977,-13.732711 -16.93685,15.498579 21.23489,-8.725949 -20.25909,10.799639 22.73782,-3.170904 -22.30837,5.422117 22.81203,2.583381 -22.95594,-0.296095 21.4529,8.175342 -22.16111,-5.995704 18.74579,13.253617 -19.9738,-11.318579 14.86082,17.499117 -16.53147,-15.930267 10.04208,20.645085 -12.05041,-19.540998 4.59237,22.493845 -6.81218,-21.923895 z"
       inkscape:transform-center-y="0.12616478"
       transform="matrix(3.4855866,0,0,1,-318.15508,0)"
       inkscape:transform-center-x="-4.9338214e-06" />
    <path
       style="fill:#ffffff;fill-opacity:0.1;stroke:none;stroke-width:16;paint-order:markers fill stroke"
       d="m 60.22453,143.99999 c 0,0 11.77547,32 67.77547,32 56,0 67.77547,-32 67.77547,-32 0,0 -11.77547,48 -67.77547,48 -56,0 -67.77547,-48 -67.77547,-48 z"
       id="path17"
       sodipodi:nodetypes="czczc" />
  </g>
  <metadata
     id="metadata1">
    <rdf:RDF>
      <cc:Work
         rdf:about="">
        <cc:license
           rdf:resource="https://healingdrawing.github.io/info/license/fpl.html" />
      </cc:Work>
    </rdf:RDF>
  </metadata>
</svg>
